HIERARCHY
ROOT SpineBase
{
  OFFSET 0.000000 0.000000 0.000000
  CHANNELS 6 Xposition Yposition Zposition Zrotation Xrotation Yrotation
  JOINT SpineMid
  {
    OFFSET 0.000000 32.280378 0.000000
    CHANNELS 3 Zrotation Xrotation Yrotation
    JOINT SpineShoulder
    {
      OFFSET 0.189981 24.043941 -0.778432
      CHANNELS 3 Zrotation Xrotation Yrotation
      JOINT Neck
      {
        OFFSET 0.143366 7.985501 -0.596333
        CHANNELS 3 Zrotation Xrotation Yrotation
        JOINT Head
        {
          OFFSET -1.414036 11.895845 3.546676
          CHANNELS 3 Zrotation Xrotation Yrotation
          End Site
          {
            OFFSET 0 0 0
          }
        }
      }
      JOINT ShoulderLeft
      {
        OFFSET -12.012564 -6.206729 -2.599546
        CHANNELS 3 Zrotation Xrotation Yrotation
        JOINT ElbowLeft
        {
          OFFSET -4.882616 -20.552348 6.523709
          CHANNELS 3 Zrotation Xrotation Yrotation
          JOINT WristLeft
          {
            OFFSET 3.767777 -21.960965 3.839573
            CHANNELS 3 Zrotation Xrotation Yrotation
            JOINT HandLeft
            {
              OFFSET -0.989404 -3.718592 -9.006127
              CHANNELS 3 Zrotation Xrotation Yrotation
              JOINT HandTipLeft
              {
                OFFSET 0.351414 -0.715035 -1.021237
                CHANNELS 3 Zrotation Xrotation Yrotation
                End Site
                {
                  OFFSET 0 0 0
                }
              }
              JOINT ThumbLeft
              {
                OFFSET 0.655518 1.479662 -2.256867
                CHANNELS 3 Zrotation Xrotation Yrotation
                End Site
                {
                  OFFSET 0 0 0
                }
              }
            }
          }
        }
      }
      JOINT ShoulderRight
      {
        OFFSET 13.245373 -6.799149 -9.010759
        CHANNELS 3 Zrotation Xrotation Yrotation
        JOINT ElbowRight
        {
          OFFSET 7.582579 -22.904731 7.050326
          CHANNELS 3 Zrotation Xrotation Yrotation
          JOINT WristRight
          {
            OFFSET 1.448989 -17.616231 13.199103
            CHANNELS 3 Zrotation Xrotation Yrotation
            JOINT HandRight
            {
              OFFSET 0.433191 -6.010885 4.781798
              CHANNELS 3 Zrotation Xrotation Yrotation
              JOINT HandTipRight
              {
                OFFSET -0.184768 1.589272 7.982076
                CHANNELS 3 Zrotation Xrotation Yrotation
                End Site
                {
                  OFFSET 0 0 0
                }
              }
              JOINT ThumbRight
              {
                OFFSET -2.047587 3.191375 -14.875260
                CHANNELS 3 Zrotation Xrotation Yrotation
                End Site
                {
                  OFFSET 0 0 0
                }
              }
            }
          }
        }
      }
    }
  }
  JOINT HipLeft
  {
    OFFSET -5.390421 0.886148 -1.946444
    CHANNELS 3 Zrotation Xrotation Yrotation
    JOINT KneeLeft
    {
      OFFSET -2.992443 -29.761963 -2.966130
      CHANNELS 3 Zrotation Xrotation Yrotation
      JOINT AnkleLeft
      {
        OFFSET -1.242866 -23.994488 -1.671392
        CHANNELS 3 Zrotation Xrotation Yrotation
        JOINT FootLeft
        {
          OFFSET -1.204919 -1.140965 -10.287666
          CHANNELS 3 Zrotation Xrotation Yrotation
          End Site
          {
            OFFSET 0 0 0
          }
        }
      }
    }
  }
  JOINT HipRight
  {
    OFFSET 6.778003 2.247657 -4.692677
    CHANNELS 3 Zrotation Xrotation Yrotation
    JOINT KneeRight
    {
      OFFSET 1.397039 -29.705310 -5.220564
      CHANNELS 3 Zrotation Xrotation Yrotation
      JOINT AnkleRight
      {
        OFFSET -0.441274 -25.318901 -3.599786
        CHANNELS 3 Zrotation Xrotation Yrotation
        JOINT FootRight
        {
          OFFSET -1.392799 -1.083438 -10.288602
          CHANNELS 3 Zrotation Xrotation Yrotation
          End Site
          {
            OFFSET 0 0 0
          }
        }
      }
    }
  }
}
MOTION
Frames: 6
Frame Time: 0.033333
-53.639390 54.494774 257.014858 -0.000000 0.000000 12.717745 -0.000000 0.000000 -12.717745 -0.000000 0.000000 0.000000 -0.000000 0.000000 0.000000 0.000000 0.000000 0.000000 -0.000000 0.000000 0.000000 -0.000000 0.000000 0.000000 -0.000000 0.000000 0.000000 -0.000000 0.000000 0.000000 0.000000 0.000000 0.000000 0.000000 0.000000 0.000000 -0.000000 0.000000 0.000000 -0.000000 0.000000 0.000000 -0.000000 0.000000 0.000000 -0.000000 0.000000 0.000000 0.000000 0.000000 0.000000 0.000000 0.000000 0.000000 -0.000000 0.000000 -12.717745 -0.000000 0.000000 0.000000 -0.000000 0.000000 0.000000 0.000000 0.000000 0.000000 -0.000000 0.000000 -12.717745 -0.000000 0.000000 0.000000 -0.000000 0.000000 0.000000 0.000000 0.000000 0.000000
-53.631524 54.493567 257.032651 -0.029063 -0.006362 12.507577 0.029751 -0.000083 -12.507579 -0.000000 0.000000 0.000000 -0.000000 0.000000 0.000000 0.000000 0.000000 0.000000 0.324827 0.747661 -0.076848 -0.323851 -0.748084 0.072614 -0.301345 -2.768550 1.548794 -7.854682 -9.286595 4.366238 0.000000 0.000000 0.000000 0.000000 0.000000 0.000000 0.536872 -0.916327 -0.133271 -1.855339 1.796681 -0.744526 0.094042 -0.038481 0.002049 1.233510 -0.825567 0.924676 0.000000 0.000000 0.000000 0.000000 0.000000 0.000000 0.029751 -0.000083 -12.507579 -0.000000 0.000000 0.000000 -0.000000 0.000000 0.000000 0.000000 0.000000 0.000000 0.029751 -0.000083 -12.507579 -0.000000 0.000000 0.000000 -0.000000 0.000000 0.000000 0.000000 0.000000 0.000000
-53.618837 54.491562 257.056685 -0.054847 -0.014645 12.332990 0.056710 0.002592 -12.332998 -0.000000 0.000000 0.000000 -0.000000 0.000000 0.000000 0.000000 0.000000 0.000000 0.589447 1.333208 -0.137173 -0.586413 -1.334545 0.123485 -0.442326 -5.022020 2.669277 -14.143063 -17.234485 8.004942 0.000000 0.000000 0.000000 0.000000 0.000000 0.000000 0.951205 -1.645434 -0.236602 -3.330343 3.198823 -1.296008 0.169688 -0.066349 0.004337 2.236535 -1.434663 1.684775 0.000000 0.000000 0.000000 0.000000 0.000000 0.000000 0.056710 0.002592 -12.332998 -0.000000 0.000000 0.000000 -0.000000 0.000000 0.000000 0.000000 0.000000 0.000000 0.056710 0.002592 -12.332998 -0.000000 0.000000 0.000000 -0.000000 0.000000 0.000000 0.000000 0.000000 0.000000
-53.601329 54.488759 257.086960 -0.077356 -0.024853 12.194143 0.080861 0.007953 -12.194165 -0.000000 0.000000 0.000000 -0.000000 0.000000 0.000000 0.000000 0.000000 0.000000 0.793557 1.757451 -0.178993 0.146809 -1.962957 0.312860 -1.410185 -6.532770 3.237126 -18.443515 -22.660752 11.015763 0.000000 0.000000 0.000000 0.000000 0.000000 0.000000 1.249284 -2.195462 -0.315397 -4.432692 4.208223 -1.686645 0.226757 -0.084424 0.006707 3.000785 -1.835677 2.270003 0.000000 0.000000 0.000000 0.000000 0.000000 0.000000 0.080861 0.007953 -12.194165 -0.000000 0.000000 0.000000 -0.000000 0.000000 0.000000 0.000000 0.000000 0.000000 0.080861 0.007953 -12.194165 -0.877911 -0.573492 0.130499 0.879259 0.571424 -0.139277 0.000000 0.000000 0.000000
-53.579002 54.485159 257.123475 -0.096590 -0.036990 12.091151 0.102195 0.015936 -12.091197 -0.000000 0.000000 0.000000 -0.000000 0.000000 0.000000 0.000000 0.000000 0.000000 0.936969 2.021114 -0.200829 0.012791 -2.309732 0.318429 -1.344609 -7.631555 3.517439 -20.981000 -25.585943 13.771489 0.000000 0.000000 0.000000 0.000000 0.000000 0.000000 1.435721 -2.572735 -0.373517 -5.167538 4.828116 -1.940315 0.265292 -0.093397 0.009094 3.521084 -2.035916 2.673622 0.000000 0.000000 0.000000 0.000000 0.000000 0.000000 0.102195 0.015936 -12.091197 -0.000000 0.000000 0.000000 -0.000000 0.000000 0.000000 0.000000 0.000000 0.000000 1.032526 0.292417 -12.221381 -1.907907 -1.142960 0.271703 1.060391 0.670631 -0.168549 0.000000 0.000000 0.000000
-53.551854 54.480760 257.166230 -0.112549 -0.051059 12.024083 0.120716 0.026492 -12.024161 -0.000000 0.000000 0.000000 -0.118512 -1.015424 -0.086661 0.000000 0.000000 0.000000 1.019603 2.124707 -0.201695 -0.213872 -2.503969 0.270554 -1.045422 -8.186175 3.398214 -22.137879 -26.344771 16.529829 0.000000 0.000000 0.000000 0.000000 0.000000 0.000000 1.513572 -2.781676 -0.413479 -5.537924 5.061581 -2.072684 0.285394 -0.093733 0.011482 3.794661 -2.040718 2.891866 0.000000 0.000000 0.000000 0.000000 0.000000 0.000000 0.120716 0.026492 -12.024161 -0.000000 0.000000 0.000000 -0.000000 0.000000 0.000000 0.000000 0.000000 0.000000 1.179258 0.359649 -12.171610 -2.148111 -1.281087 0.301709 1.187444 0.725786 -0.188869 0.000000 0.000000 0.000000
